<svg width="18" height="17" viewBox="0 0 18 17" fill="none" xmlns="http://www.w3.org/2000/svg">
<path d="M17.0864 8.10031H16.7559V2.53135C16.7559 2.07587 16.4856 1.70533 16.1533 1.70533H14.6247C14.502 1.70533 14.3875 1.66126 14.2938 1.57786C13.1828 0.589831 11.2038 0 9 0C6.79619 0 4.8172 0.589831 3.70621 1.57786C3.61248 1.6612 3.49806 1.70533 3.37525 1.70533H1.84665C1.51437 1.70533 1.24406 2.07587 1.24406 2.53135V8.10031H0.913607C0.40984 8.10031 0 8.66211 0 9.35266V10.2053C0 10.7562 0.260864 11.2247 0.62203 11.3919V14.895C0.62203 15.4458 0.882894 15.9143 1.24406 16.0816V16.6003C1.24406 16.8211 1.37461 17 1.53564 17C1.69667 17 1.82721 16.8211 1.82721 16.6003V16.1473H16.1728V16.6003C16.1728 16.8211 16.3033 17 16.4644 17C16.6254 17 16.7559 16.8211 16.7559 16.6003V16.0816C17.1171 15.9143 17.378 15.4458 17.378 14.895V11.3919C17.7391 11.2247 18 10.7562 18 10.2053V9.35266C18 8.66211 17.5902 8.10031 17.0864 8.10031ZM1.82721 2.53135C1.82721 2.51669 1.83592 2.5047 1.84665 2.5047H3.37525C3.61096 2.5047 3.83517 2.41613 4.0236 2.24848C5.02869 1.35467 6.93552 0.799373 9 0.799373C11.0645 0.799373 12.9713 1.35467 13.9764 2.24848C14.1648 2.41613 14.389 2.5047 14.6247 2.5047H16.1533C16.1641 2.5047 16.1728 2.51669 16.1728 2.53135V8.10031H15.3299C15.4452 7.84441 15.5119 7.5432 15.5119 7.221V5.51567C15.5119 4.59005 14.9625 3.83699 14.2873 3.83699H10.5551C9.87982 3.83699 9.33045 4.59005 9.33045 5.51567V7.221C9.33045 7.5432 9.39717 7.84441 9.51244 8.10031H8.48752C8.60279 7.84441 8.66951 7.5432 8.66951 7.221V5.51567C8.66951 4.59005 8.12014 3.83699 7.44489 3.83699H3.7127C3.03749 3.83699 2.48812 4.59005 2.48812 5.51567V7.221C2.48812 7.5432 2.55483 7.84441 2.6701 8.10031H1.82721V2.53135ZM9.91361 7.221V5.51567C9.91361 5.03083 10.2014 4.63636 10.5551 4.63636H14.2873C14.641 4.63636 14.9287 5.03083 14.9287 5.51567V7.221C14.9287 7.70585 14.641 8.10031 14.2873 8.10031H10.5551C10.2014 8.10031 9.91361 7.70585 9.91361 7.221ZM3.07127 7.221V5.51567C3.07127 5.03083 3.35904 4.63636 3.71274 4.63636H7.44492C7.79863 4.63636 8.08639 5.03083 8.08639 5.51567V7.221C8.08639 7.70585 7.79863 8.10031 7.44492 8.10031H3.71274C3.35904 8.10031 3.07127 7.70585 3.07127 7.221ZM16.4644 15.348H1.53564C1.35342 15.348 1.20518 15.1448 1.20518 14.895V11.4577H16.7948V14.895C16.7948 15.1448 16.6466 15.348 16.4644 15.348ZM17.4168 10.2053C17.4168 10.4551 17.2686 10.6583 17.0864 10.6583H0.913607C0.731391 10.6583 0.583153 10.4551 0.583153 10.2053V9.35266C0.583153 9.10289 0.731391 8.89969 0.913607 8.89969H1.53564H3.71274H7.44492H10.5551H14.2873H16.4644H17.0864C17.2686 8.89969 17.4168 9.10289 17.4168 9.35266V10.2053Z" fill="black"/>
</svg>
