<svg width="24" height="24" viewBox="0 0 24 24" fill="none" xmlns="http://www.w3.org/2000/svg">
<path d="M4.17421 0C9.39216 0 14.6107 0 19.8286 0C19.841 0.00938921 19.8521 0.0258203 19.865 0.026994C21.0185 0.170179 22.0634 1.26989 22.0076 2.73578C21.9566 4.08489 22.0006 5.43753 21.9924 6.7884C21.9912 6.97266 22.0329 7.06245 22.2236 7.1135C22.705 7.24143 23.0854 7.52956 23.4135 7.90278C23.7399 8.27424 23.8861 8.71906 23.9994 9.18324C23.9994 9.69847 23.9994 10.2143 23.9994 10.7295C23.9882 10.7501 23.9729 10.7688 23.9659 10.7906C23.7111 11.6227 23.2145 11.993 22.3499 11.9947C22.2366 11.9947 22.1233 11.9947 21.9959 11.9947C21.9959 12.1326 21.9959 12.233 21.9959 12.3339C21.9941 14.7546 22.0123 17.1758 21.9812 19.5959C21.9677 20.6492 21.3901 21.3939 20.4297 21.7906C20.0975 21.9279 19.9871 22.0588 19.9901 22.4214C19.9977 23.3774 19.3491 23.9853 18.3881 23.9889C17.7946 23.9912 17.2006 23.9912 16.6071 23.9889C15.628 23.9847 15.004 23.3551 14.9999 22.3704C14.9993 22.2483 14.9999 22.1269 14.9999 22.0001C12.9864 22.0001 11.0059 22.0001 8.99827 22.0001C8.99827 22.182 9.00531 22.3516 8.9971 22.5212C8.95894 23.3298 8.37486 23.9472 7.57066 23.9795C6.86096 24.0076 6.14833 24.0065 5.43863 23.9806C4.66436 23.9525 4.10494 23.3997 4.01924 22.6215C3.99458 22.3986 3.99517 22.1726 3.98401 21.9514C2.67909 21.6034 1.95882 20.5172 1.98994 19.1417C2.04218 16.8548 2.00402 14.5662 2.00402 12.2782C2.00402 12.1884 2.00402 12.098 2.00402 11.9959C1.82675 11.9959 1.68645 11.9982 1.54674 11.9953C0.648613 11.9789 0.0181621 11.3521 0.00231273 10.4555C-0.00355739 10.1198 -0.00355739 9.78356 0.00348675 9.4479C0.0263802 8.374 0.724337 7.43626 1.75513 7.1223C1.96117 7.05951 2.00989 6.96914 2.00872 6.7661C2.00168 5.29786 1.99698 3.83021 2.01518 2.36197C2.02398 1.66189 2.34684 1.09502 2.86106 0.624969C3.24027 0.280503 3.69403 0.116191 4.17421 0ZM12.0002 5.99736C9.8917 5.99736 7.78374 5.99677 5.6752 5.99736C4.6174 5.99736 4.00045 6.61059 3.99928 7.66688C3.99752 9.22021 3.99693 10.7735 4.00163 12.3274C4.00221 12.5129 4.01571 12.7048 4.06385 12.8826C4.2558 13.5938 4.83577 13.9964 5.65348 13.997C9.88583 13.9981 14.1182 13.9981 18.3505 13.9952C18.5284 13.9952 18.7121 13.9805 18.883 13.9354C19.5874 13.7476 20.0006 13.169 20.0024 12.3732C20.0059 10.7888 20.0053 9.20378 20.0006 7.61935C20 7.44975 19.9819 7.27429 19.9378 7.11115C19.7494 6.41166 19.1753 6.00029 18.3952 5.99912C16.2643 5.99619 14.1323 5.99736 12.0002 5.99736ZM12.0014 2.00284C10.5797 2.00284 9.15794 2.00225 7.73619 2.00342C7.28302 2.00401 6.82926 1.99051 6.37785 2.01809C5.78732 2.05389 5.36349 2.37488 5.13221 2.90831C4.90445 3.43293 4.97019 3.94816 5.32182 4.41C5.66346 4.85892 6.13835 5.00328 6.68192 5.00269C10.2281 4.99976 13.7748 5.00152 17.3209 5.00152C17.3679 5.00152 17.4148 5.00269 17.4618 5.00034C18.573 4.95105 19.2616 3.97868 18.8982 2.97286C18.6775 2.36139 18.1304 2.00518 17.392 2.00401C15.5951 2.00108 13.7983 2.00284 12.0014 2.00284ZM6.51345 18.9844C7.33233 18.9779 7.99859 18.3095 8.00152 17.4927C8.00446 16.6764 7.30357 15.981 6.49114 15.9934C5.65993 16.0063 4.99661 16.6876 5.00952 17.515C5.02244 18.3377 5.69105 18.9914 6.51345 18.9844ZM18.9939 17.4921C18.9933 16.6735 18.3335 16.0068 17.5123 15.9939C16.6999 15.981 16.0019 16.6741 16.0019 17.4927C16.0013 18.3148 16.687 18.992 17.5129 18.985C18.3347 18.9785 18.9945 18.3137 18.9939 17.4921Z" fill="#6366F1"/>
</svg>
