<svg width="16" height="17" viewBox="0 0 16 17" fill="none" xmlns="http://www.w3.org/2000/svg">
<path d="M3.59993 1.90002H12.3999C13.1333 1.90002 13.7333 2.50002 13.7333 3.23336V4.70002C13.7333 5.23336 13.3999 5.90002 13.0666 6.23336L10.1999 8.76669C9.79993 9.10002 9.53327 9.76669 9.53327 10.3V13.1667C9.53327 13.5667 9.2666 14.1 8.93327 14.3L7.99994 14.9C7.13327 15.4334 5.93327 14.8334 5.93327 13.7667V10.2334C5.93327 9.76669 5.6666 9.16669 5.39994 8.83336L2.8666 6.16669C2.53327 5.83336 2.2666 5.23336 2.2666 4.83336V3.30002C2.2666 2.50002 2.8666 1.90002 3.59993 1.90002Z" stroke="#6366F1" stroke-width="1.25" stroke-miterlimit="10" stroke-linecap="round" stroke-linejoin="round"/>
<path d="M7.28667 1.90002L4 7.16669" stroke="#6366F1" stroke-width="1.25" stroke-miterlimit="10" stroke-linecap="round" stroke-linejoin="round"/>
</svg>
