<svg width="18" height="17" viewBox="0 0 18 17" fill="none" xmlns="http://www.w3.org/2000/svg">
<mask id="path-1-inside-1_1_514" fill="white">
<path d="M17.901 7.75711L8.99987 0L0.0990615 7.75711C-0.0263195 7.86663 -0.0337678 8.05101 0.0829233 8.16897C0.198994 8.28664 0.396065 8.29334 0.521446 8.18412L1.55149 7.28642V17H16.4482V7.28613L17.4783 8.18383C17.5379 8.23596 17.6139 8.26159 17.6896 8.26159C17.7731 8.26159 17.856 8.23043 17.9168 8.16868C18.0338 8.05101 18.0264 7.86663 17.901 7.75711ZM15.8275 16.4175H2.17219V6.74524L8.99987 0.794877L15.8275 6.74524V16.4175Z"/>
</mask>
<path d="M17.901 7.75711L8.99987 0L0.0990615 7.75711C-0.0263195 7.86663 -0.0337678 8.05101 0.0829233 8.16897C0.198994 8.28664 0.396065 8.29334 0.521446 8.18412L1.55149 7.28642V17H16.4482V7.28613L17.4783 8.18383C17.5379 8.23596 17.6139 8.26159 17.6896 8.26159C17.7731 8.26159 17.856 8.23043 17.9168 8.16868C18.0338 8.05101 18.0264 7.86663 17.901 7.75711ZM15.8275 16.4175H2.17219V6.74524L8.99987 0.794877L15.8275 6.74524V16.4175Z" fill="#747268"/>
<path d="M17.901 7.75711L18.5588 7.00397L18.558 7.00322L17.901 7.75711ZM8.99987 0L9.65687 -0.753892L8.99986 -1.32646L8.34285 -0.75388L8.99987 0ZM0.0990615 7.75711L-0.557951 7.00323L-0.558794 7.00397L0.0990615 7.75711ZM0.0829233 8.16897L0.794863 7.46673L0.793857 7.46571L0.0829233 8.16897ZM0.521446 8.18412L1.17831 8.93813L1.17846 8.938L0.521446 8.18412ZM1.55149 7.28642H2.55149V5.08844L0.894482 6.53254L1.55149 7.28642ZM1.55149 17H0.551494V18H1.55149V17ZM16.4482 17V18H17.4482V17H16.4482ZM16.4482 7.28613L17.1053 6.53225L15.4482 5.08815V7.28613H16.4482ZM17.4783 8.18383L18.1368 7.43124L18.1353 7.42995L17.4783 8.18383ZM17.9168 8.16868L17.2077 7.46359L17.2044 7.46691L17.9168 8.16868ZM15.8275 16.4175V17.4175H16.8275V16.4175H15.8275ZM2.17219 16.4175H1.17219V17.4175H2.17219V16.4175ZM2.17219 6.74524L1.51518 5.99136L1.17219 6.29028V6.74524H2.17219ZM8.99987 0.794877L9.65688 0.0409967L8.99987 -0.531593L8.34286 0.0409967L8.99987 0.794877ZM15.8275 6.74524H16.8275V6.29028L16.4846 5.99136L15.8275 6.74524ZM18.558 7.00322L9.65687 -0.753892L8.34287 0.753892L17.244 8.51101L18.558 7.00322ZM8.34285 -0.75388L-0.55795 7.00323L0.756073 8.51099L9.65688 0.75388L8.34285 -0.75388ZM-0.558794 7.00397C-1.11391 7.48886 -1.15449 8.34 -0.62801 8.87223L0.793857 7.46571C1.08696 7.76201 1.06127 8.24441 0.756917 8.51026L-0.558794 7.00397ZM-0.629015 8.87121C-0.137553 9.36946 0.659373 9.3902 1.17831 8.93813L-0.135415 7.43011C0.132758 7.19648 0.535541 7.20383 0.794862 7.46673L-0.629015 8.87121ZM1.17846 8.938L2.20851 8.0403L0.894482 6.53254L-0.135566 7.43024L1.17846 8.938ZM0.551494 7.28642V17H2.55149V7.28642H0.551494ZM1.55149 18H16.4482V16H1.55149V18ZM17.4482 17V7.28613H15.4482V17H17.4482ZM15.7912 8.04001L16.8213 8.93771L18.1353 7.42995L17.1053 6.53225L15.7912 8.04001ZM16.8198 8.93641C17.0764 9.16096 17.392 9.26159 17.6896 9.26159V7.26159C17.8358 7.26159 17.9993 7.31097 18.1368 7.43124L16.8198 8.93641ZM17.6896 9.26159C18.0177 9.26159 18.3647 9.13893 18.6292 8.87045L17.2044 7.46691C17.3472 7.32193 17.5285 7.26159 17.6896 7.26159V9.26159ZM18.6259 8.87376C19.1556 8.34107 19.1136 7.48851 18.5588 7.00397L17.2431 8.51026C16.9392 8.24475 16.912 7.76094 17.2077 7.4636L18.6259 8.87376ZM15.8275 15.4175H2.17219V17.4175H15.8275V15.4175ZM3.17219 16.4175V6.74524H1.17219V16.4175H3.17219ZM2.8292 7.49912L9.65688 1.54876L8.34286 0.0409967L1.51518 5.99136L2.8292 7.49912ZM8.34286 1.54876L15.1705 7.49912L16.4846 5.99136L9.65688 0.0409967L8.34286 1.54876ZM14.8275 6.74524V16.4175H16.8275V6.74524H14.8275Z" fill="black" mask="url(#path-1-inside-1_1_514)"/>
<mask id="path-3-inside-2_1_514" fill="white">
<path d="M4.0343 10.301H8.37919V6.22322H4.0343V10.301ZM4.655 6.80576H7.75849V9.71847H4.655V6.80576Z"/>
</mask>
<path d="M4.0343 10.301H8.37919V6.22322H4.0343V10.301ZM4.655 6.80576H7.75849V9.71847H4.655V6.80576Z" fill="#747268"/>
<path d="M8.37919 10.301V11.301H9.37919V10.301H8.37919ZM8.37919 6.22322H9.37919V5.22322H8.37919V6.22322ZM4.0343 6.22322V5.22322H3.0343V6.22322H4.0343ZM7.75849 6.80576H8.75849V5.80576H7.75849V6.80576ZM7.75849 9.71847V10.7185H8.75849V9.71847H7.75849ZM4.655 9.71847H3.655V10.7185H4.655V9.71847ZM4.0343 11.301H8.37919V9.30101H4.0343V11.301ZM9.37919 10.301V6.22322H7.37919V10.301H9.37919ZM8.37919 5.22322H4.0343V7.22322H8.37919V5.22322ZM3.0343 6.22322V10.301H5.0343V6.22322H3.0343ZM4.655 7.80576H7.75849V5.80576H4.655V7.80576ZM6.75849 6.80576V9.71847H8.75849V6.80576H6.75849ZM7.75849 8.71847H4.655V10.7185H7.75849V8.71847ZM5.655 9.71847V6.80576H3.655V9.71847H5.655Z" fill="black" mask="url(#path-3-inside-2_1_514)"/>
<mask id="path-5-inside-3_1_514" fill="white">
<path d="M13.9654 6.22322H9.62054V10.301H13.9654V6.22322ZM13.3447 9.71847H10.2412V6.80576H13.3447V9.71847Z"/>
</mask>
<path d="M13.9654 6.22322H9.62054V10.301H13.9654V6.22322ZM13.3447 9.71847H10.2412V6.80576H13.3447V9.71847Z" fill="#747268"/>
<path d="M13.9654 6.22322H14.9654V5.22322H13.9654V6.22322ZM9.62054 6.22322V5.22322H8.62054V6.22322H9.62054ZM9.62054 10.301H8.62054V11.301H9.62054V10.301ZM13.9654 10.301V11.301H14.9654V10.301H13.9654ZM13.3447 9.71847V10.7185H14.3447V9.71847H13.3447ZM10.2412 9.71847H9.24124V10.7185H10.2412V9.71847ZM10.2412 6.80576V5.80576H9.24124V6.80576H10.2412ZM13.3447 6.80576H14.3447V5.80576H13.3447V6.80576ZM13.9654 5.22322H9.62054V7.22322H13.9654V5.22322ZM8.62054 6.22322V10.301H10.6205V6.22322H8.62054ZM9.62054 11.301H13.9654V9.30101H9.62054V11.301ZM14.9654 10.301V6.22322H12.9654V10.301H14.9654ZM13.3447 8.71847H10.2412V10.7185H13.3447V8.71847ZM11.2412 9.71847V6.80576H9.24124V9.71847H11.2412ZM10.2412 7.80576H13.3447V5.80576H10.2412V7.80576ZM12.3447 6.80576V9.71847H14.3447V6.80576H12.3447Z" fill="black" mask="url(#path-5-inside-3_1_514)"/>
<mask id="path-7-inside-4_1_514" fill="white">
<path d="M4.0343 15.5431H8.37919V11.4654H4.0343V15.5431ZM4.655 12.0479H7.75849V14.9606H4.655V12.0479Z"/>
</mask>
<path d="M4.0343 15.5431H8.37919V11.4654H4.0343V15.5431ZM4.655 12.0479H7.75849V14.9606H4.655V12.0479Z" fill="#747268"/>
<path d="M8.37919 15.5431V16.5431H9.37919V15.5431H8.37919ZM8.37919 11.4654H9.37919V10.4654H8.37919V11.4654ZM4.0343 11.4654V10.4654H3.0343V11.4654H4.0343ZM7.75849 12.0479H8.75849V11.0479H7.75849V12.0479ZM7.75849 14.9606V15.9606H8.75849V14.9606H7.75849ZM4.655 14.9606H3.655V15.9606H4.655V14.9606ZM4.0343 16.5431H8.37919V14.5431H4.0343V16.5431ZM9.37919 15.5431V11.4654H7.37919V15.5431H9.37919ZM8.37919 10.4654H4.0343V12.4654H8.37919V10.4654ZM3.0343 11.4654V15.5431H5.0343V11.4654H3.0343ZM4.655 13.0479H7.75849V11.0479H4.655V13.0479ZM6.75849 12.0479V14.9606H8.75849V12.0479H6.75849ZM7.75849 13.9606H4.655V15.9606H7.75849V13.9606ZM5.655 14.9606V12.0479H3.655V14.9606H5.655Z" fill="black" mask="url(#path-7-inside-4_1_514)"/>
<mask id="path-9-inside-5_1_514" fill="white">
<path d="M13.9654 11.4654H9.62054V15.5431H13.9654V11.4654ZM13.3447 14.9606H10.2412V12.0479H13.3447V14.9606Z"/>
</mask>
<path d="M13.9654 11.4654H9.62054V15.5431H13.9654V11.4654ZM13.3447 14.9606H10.2412V12.0479H13.3447V14.9606Z" fill="#747268"/>
<path d="M13.9654 11.4654H14.9654V10.4654H13.9654V11.4654ZM9.62054 11.4654V10.4654H8.62054V11.4654H9.62054ZM9.62054 15.5431H8.62054V16.5431H9.62054V15.5431ZM13.9654 15.5431V16.5431H14.9654V15.5431H13.9654ZM13.3447 14.9606V15.9606H14.3447V14.9606H13.3447ZM10.2412 14.9606H9.24124V15.9606H10.2412V14.9606ZM10.2412 12.0479V11.0479H9.24124V12.0479H10.2412ZM13.3447 12.0479H14.3447V11.0479H13.3447V12.0479ZM13.9654 10.4654H9.62054V12.4654H13.9654V10.4654ZM8.62054 11.4654V15.5431H10.6205V11.4654H8.62054ZM9.62054 16.5431H13.9654V14.5431H9.62054V16.5431ZM14.9654 15.5431V11.4654H12.9654V15.5431H14.9654ZM13.3447 13.9606H10.2412V15.9606H13.3447V13.9606ZM11.2412 14.9606V12.0479H9.24124V14.9606H11.2412ZM10.2412 13.0479H13.3447V11.0479H10.2412V13.0479ZM12.3447 12.0479V14.9606H14.3447V12.0479H12.3447Z" fill="black" mask="url(#path-9-inside-5_1_514)"/>
</svg>
