<svg width="120" height="120" viewBox="0 0 120 120" fill="none" xmlns="http://www.w3.org/2000/svg">
<path d="M53 69L42.125 58.125C41.2083 57.2083 40.0833 56.75 38.75 56.75C37.4167 56.75 36.25 57.25 35.25 58.25C34.3333 59.1667 33.875 60.3333 33.875 61.75C33.875 63.1667 34.3333 64.3333 35.25 65.25L49.5 79.5C50.4167 80.4167 51.5833 80.875 53 80.875C54.4167 80.875 55.5833 80.4167 56.5 79.5L84.875 51.125C85.7917 50.2083 86.25 49.0833 86.25 47.75C86.25 46.4167 85.75 45.25 84.75 44.25C83.8333 43.3333 82.6667 42.875 81.25 42.875C79.8333 42.875 78.6667 43.3333 77.75 44.25L53 69ZM60 110C53.0833 110 46.5833 108.687 40.5 106.06C34.4167 103.437 29.125 99.875 24.625 95.375C20.125 90.875 16.5633 85.5833 13.94 79.5C11.3133 73.4167 10 66.9167 10 60C10 53.0833 11.3133 46.5833 13.94 40.5C16.5633 34.4167 20.125 29.125 24.625 24.625C29.125 20.125 34.4167 16.5617 40.5 13.935C46.5833 11.3117 53.0833 10 60 10C66.9167 10 73.4167 11.3117 79.5 13.935C85.5833 16.5617 90.875 20.125 95.375 24.625C99.875 29.125 103.437 34.4167 106.06 40.5C108.687 46.5833 110 53.0833 110 60C110 66.9167 108.687 73.4167 106.06 79.5C103.437 85.5833 99.875 90.875 95.375 95.375C90.875 99.875 85.5833 103.437 79.5 106.06C73.4167 108.687 66.9167 110 60 110Z" fill="#6366F1"/>
</svg>
